<?xml version="1.0" standalone="no"?>
<!DOCTYPE svg PUBLIC "-//W3C//DTD SVG 20010904//EN"
 "http://www.w3.org/TR/2001/REC-SVG-20010904/DTD/svg10.dtd">
<svg version="1.0" xmlns="http://www.w3.org/2000/svg"
 width="422.000000pt" height="422.000000pt" viewBox="0 0 422.000000 422.000000"
 preserveAspectRatio="xMidYMid meet">
<metadata>
Created by potrace 1.14, written by Peter Selinger 2001-2017
</metadata>
<g transform="translate(0.000000,422.000000) scale(0.100000,-0.100000)"
fill="#000000" stroke="none">
<path d="M2920 4042 c-17 -13 -24 -33 -29 -77 l-6 -60 -107 -3 -108 -3 0 54
c0 29 -6 61 -13 71 -15 20 -4 20 -615 18 -407 -2 -423 -3 -442 -22 -15 -15
-20 -33 -20 -70 l0 -50 -82 0 c-46 0 -107 -3 -135 -6 -52 -7 -53 -6 -53 18 0
53 -13 90 -35 98 -11 4 -241 14 -509 21 -487 12 -487 12 -508 -8 -14 -14 -22
-40 -27 -79 l-6 -59 -86 -3 c-80 -3 -87 -5 -93 -25 -11 -41 -41 -2354 -41
-3192 0 -289 1 -316 22 -395 14 -51 31 -92 43 -101 22 -18 148 -18 1195 1 286
6 1040 13 1675 16 635 4 1162 11 1171 15 21 11 83 165 99 246 10 48 10 199 1
680 -6 340 -16 974 -22 1409 -16 1171 -21 1353 -39 1364 -8 5 -47 10 -86 10
l-71 0 -5 64 c-3 35 -9 69 -12 75 -5 8 -157 11 -520 11 -480 0 -515 -1 -536
-18z"/>
</g>
</svg>
